<svg xmlns="http://www.w3.org/2000/svg" viewBox="0 0 512 512" fill="none">
  <rect width="512" height="512" fill="#000000"/>
  <rect x="24" y="24" width="464" height="464" rx="16" stroke="#00AEEF" stroke-width="4" fill="#050508"/>
  <!-- Dome arena -->
  <path d="M 80 320 Q 256 80 432 320" stroke="#00AEEF" stroke-width="2" fill="none" opacity="0.4"/>
  <ellipse cx="256" cy="340" rx="160" ry="20" stroke="#00AEEF" stroke-width="1" fill="rgba(0,174,239,0.2)"/>
  <!-- Boxer wireframe -->
  <ellipse cx="256" cy="180" rx="40" ry="45" stroke="#00AEEF" stroke-width="3"/>
  <line x1="256" y1="225" x2="256" y2="310" stroke="#00AEEF" stroke-width="3"/>
  <line x1="256" y1="250" x2="190" y2="290" stroke="#00AEEF" stroke-width="3"/>
  <line x1="256" y1="250" x2="322" y2="290" stroke="#00AEEF" stroke-width="3"/>
  <ellipse cx="190" cy="300" rx="25" ry="30" stroke="#00AEEF" stroke-width="3" fill="rgba(0,174,239,0.15)"/>
  <ellipse cx="322" cy="300" rx="25" ry="30" stroke="#00AEEF" stroke-width="3" fill="rgba(0,174,239,0.15)"/>
  <line x1="256" y1="310" x2="220" y2="380" stroke="#00AEEF" stroke-width="3"/>
  <line x1="256" y1="310" x2="292" y2="380" stroke="#00AEEF" stroke-width="3"/>
  <!-- Title text -->
  <text x="256" y="430" text-anchor="middle" font-family="Arial Black, sans-serif" font-size="28" font-weight="900" fill="#FFFFFF">CREATORS AI</text>
  <text x="256" y="465" text-anchor="middle" font-family="Arial Black, sans-serif" font-size="22" font-weight="900" fill="#00AEEF">HOLOGRAM BOXING</text>
  <!-- Prize banner -->
  <rect x="100" y="400" width="312" height="28" rx="4" fill="#FFC107"/>
  <text x="256" y="420" text-anchor="middle" font-family="Arial, sans-serif" font-size="14" font-weight="bold" fill="#000000">WINNERS GET PRIZE MONEY</text>
</svg>
